<svg width="140" height="19" viewBox="0 0 140 19" fill="none" xmlns="http://www.w3.org/2000/svg">
<g id="Tesla,_Inc.-Wordmark-Red-Logo.wine (1) 1" clip-path="url(#clip0_57_1061)">
<path id="Vector" d="M119.556 7.19046V18.1877H123.083V10.8657H135.918V18.1877H139.443V7.20953L119.556 7.19046ZM122.69 3.63313H136.251C138.134 3.25873 139.535 1.5965 139.93 -0.0115277H119.011C119.402 1.597 120.823 3.25873 122.69 3.63313ZM108.875 18.1947C110.653 17.4409 111.61 16.137 111.976 14.6113H96.1584L96.1685 -0.00249385L92.6227 0.00754377V18.1947H108.875ZM66.2549 3.58395H78.7788C80.6669 3.03539 82.2523 1.597 82.6388 0.00252496H62.7442V10.7503H79.0272V14.5219L66.2549 14.532C64.2534 15.0901 62.556 16.4341 61.7093 18.2093L62.7442 18.1902H82.5258V7.17691H66.2549V3.58395ZM35.3375 3.61858H48.8938C50.7799 3.24267 52.1816 1.58194 52.5746 -0.0275879H31.6567C32.0472 1.58194 33.4695 3.24267 35.3375 3.61858ZM35.3375 10.8065H48.8938C50.7799 10.4346 52.1816 8.77239 52.5746 7.16185H31.6567C32.0472 8.77289 33.4695 10.4346 35.3375 10.8065ZM35.3375 18.1927H48.8938C50.7799 17.8178 52.1816 16.1561 52.5746 14.5475H31.6567C32.0472 16.1566 33.4695 17.8178 35.3375 18.1927ZM0.0698242 0.0165776C0.477351 1.60603 1.85351 3.23062 3.74158 3.63765H9.44797L9.73906 3.75258V18.152H13.3024V3.75258L13.6261 3.63765H19.3375C21.2467 3.1458 22.5932 1.60603 22.9937 0.0165776V-0.018554H0.0698242V0.0165776Z" fill="black"/>
</g>
<defs>
<clipPath id="clip0_57_1061">
<rect width="140" height="18.3333" fill="white"/>
</clipPath>
</defs>
</svg>
